<svg data-v-fde0c5aa="" xmlns="http://www.w3.org/2000/svg" viewBox="0 0 300 300" class="iconAbove"><!----><defs data-v-fde0c5aa=""><!----></defs><rect data-v-fde0c5aa="" fill="#4D65F1" x="0" y="0" width="300px" height="300px" class="logo-background-square"></rect><defs data-v-fde0c5aa=""><!----></defs><g data-v-fde0c5aa="" id="04a98104-093b-4153-a8cd-ad69ec9b6514" fill="#ffffff" transform="matrix(1.7740174968006102,0,0,1.7740174968006102,17.92439939339649,162.21097199065775)"><path d="M9.36 3.82L5.92 8.65L2.49 3.82L1.17 3.82L1.17 13.15L2.64 13.15L2.64 6.31L5.94 10.76L9.22 6.31L9.22 13.15L10.69 13.15L10.69 3.82ZM17.95 6.53L17.76 7.45C17.25 6.78 16.48 6.36 15.46 6.36C13.74 6.36 12.37 7.69 12.37 9.84C12.37 12.00 13.74 13.31 15.46 13.31C16.46 13.31 17.24 12.89 17.75 12.22L17.95 13.15L19.12 13.15L19.12 6.53ZM15.79 12.12C14.60 12.12 13.81 11.14 13.81 9.84C13.81 8.55 14.60 7.55 15.79 7.55C17.03 7.55 17.84 8.55 17.84 9.84C17.84 11.14 17.03 12.12 15.79 12.12ZM23.99 13.34C24.91 13.34 25.65 13.07 26.26 12.60L25.45 11.58C25.08 11.93 24.57 12.13 24.02 12.13C22.72 12.13 21.95 11.14 21.95 9.84C21.95 8.55 22.72 7.57 24.02 7.57C24.57 7.57 25.08 7.77 25.45 8.12L26.26 7.10C25.65 6.64 24.91 6.36 23.99 6.36C21.93 6.36 20.50 7.89 20.50 9.84C20.50 11.81 21.93 13.34 23.99 13.34ZM30.84 6.36C29.91 6.36 29.20 6.75 28.79 7.35L28.79 3.24L27.37 3.24L27.37 13.15L28.79 13.15L28.79 9.42C28.79 8.02 29.65 7.57 30.45 7.57C31.47 7.57 31.91 8.30 31.91 9.38L31.91 13.15L33.32 13.15L33.32 9.06C33.32 7 32.00 6.36 30.84 6.36ZM35.85 5.26C36.36 5.26 36.76 4.86 36.76 4.36C36.76 3.86 36.36 3.46 35.85 3.46C35.35 3.46 34.94 3.86 34.94 4.36C34.94 4.86 35.35 5.26 35.85 5.26ZM35.17 13.15L36.56 13.15L36.56 6.53L35.17 6.53ZM41.94 6.36C41.01 6.36 40.31 6.75 39.90 7.32L39.73 6.53L38.49 6.53L38.49 13.15L39.90 13.15L39.90 9.11C40.02 7.95 40.80 7.57 41.55 7.57C42.57 7.57 43.01 8.30 43.01 9.38L43.01 13.15L44.42 13.15L44.42 9.06C44.42 7 43.09 6.36 41.94 6.36ZM52.40 9.70C52.40 7.73 51.07 6.36 49.15 6.36C47.16 6.36 45.73 7.89 45.73 9.84C45.73 11.80 47.15 13.31 49.32 13.31C50.46 13.31 51.42 12.92 52.02 12.25L51.04 11.46C50.62 11.94 50.05 12.19 49.31 12.19C48.07 12.19 47.32 11.33 47.22 10.15L52.40 10.15ZM49.15 7.50C50.18 7.50 50.85 8.12 51.00 9.17L47.28 9.17C47.48 8.17 48.17 7.50 49.15 7.50ZM61.77 7.99C62.82 7.71 63.38 7.04 63.38 6.05C63.38 4.67 62.26 3.82 60.40 3.82L57.79 3.82L57.79 13.15L60.83 13.15C62.91 13.15 64.21 12.12 64.21 10.47C64.21 9.11 63.34 8.21 61.77 7.99ZM61.92 6.17C61.92 7 61.32 7.51 60.32 7.51L59.28 7.51L59.28 4.93L60.36 4.93C61.37 4.93 61.92 5.37 61.92 6.17ZM60.64 12.05L59.28 12.05L59.28 8.72L60.59 8.72C61.86 8.72 62.66 9.32 62.66 10.37C62.66 11.40 61.91 12.05 60.64 12.05ZM68.67 6.36C67.89 6.36 67.36 6.74 66.98 7.41L66.81 6.53L65.58 6.53L65.58 13.15L67.00 13.15L67.00 9.70C67.00 8.62 67.56 7.66 68.60 7.66C68.83 7.66 69.05 7.70 69.24 7.79L69.66 6.58C69.49 6.47 69.11 6.36 68.67 6.36ZM75.77 6.53L75.59 7.45C75.07 6.78 74.30 6.36 73.28 6.36C71.56 6.36 70.19 7.69 70.19 9.84C70.19 12.00 71.56 13.31 73.28 13.31C74.29 13.31 75.06 12.89 75.57 12.22L75.77 13.15L76.94 13.15L76.94 6.53ZM73.62 12.12C72.42 12.12 71.63 11.14 71.63 9.84C71.63 8.55 72.42 7.55 73.62 7.55C74.86 7.55 75.66 8.55 75.66 9.84C75.66 11.14 74.86 12.12 73.62 12.12ZM82.15 6.36C81.21 6.36 80.51 6.75 80.11 7.32L79.93 6.53L78.69 6.53L78.69 13.15L80.11 13.15L80.11 9.11C80.22 7.95 81.01 7.57 81.75 7.57C82.77 7.57 83.21 8.30 83.21 9.38L83.21 13.15L84.63 13.15L84.63 9.06C84.63 7 83.30 6.36 82.15 6.36ZM91.23 3.24L91.23 7.32C90.72 6.72 89.99 6.36 89.05 6.36C87.32 6.36 85.95 7.69 85.95 9.84C85.95 12.00 87.32 13.31 89.05 13.31C90.04 13.31 90.81 12.91 91.32 12.25L91.50 13.15L92.65 13.15L92.65 3.24ZM89.38 12.12C88.19 12.12 87.40 11.14 87.40 9.84C87.40 8.55 88.19 7.55 89.38 7.55C90.62 7.55 91.42 8.55 91.42 9.84C91.42 11.14 90.62 12.12 89.38 12.12ZM103.13 8.06L103.13 9.23L105.67 9.23C105.61 10.97 104.37 12.02 102.71 12.02C100.65 12.02 99.39 10.37 99.39 8.44C99.39 6.50 100.67 4.93 102.78 4.91C103.88 4.91 104.61 5.34 104.93 5.60L105.73 4.46C105.31 4.11 104.23 3.59 102.80 3.59C99.78 3.59 97.84 5.75 97.84 8.44C97.84 11.17 99.76 13.34 102.74 13.34C105.64 13.34 107.19 11.21 107.19 8.90L107.19 8.06ZM111.47 13.33C112.92 13.33 114.44 12.67 114.44 10.31L114.44 6.53L113.02 6.53L113.02 10.32C113.02 11.43 112.48 12.12 111.47 12.12C110.47 12.12 109.93 11.43 109.93 10.32L109.93 6.53L108.51 6.53L108.51 10.31C108.51 12.67 110.03 13.33 111.47 13.33ZM122.41 9.70C122.41 7.73 121.09 6.36 119.16 6.36C117.18 6.36 115.75 7.89 115.75 9.84C115.75 11.80 117.16 13.31 119.34 13.31C120.47 13.31 121.44 12.92 122.03 12.25L121.06 11.46C120.63 11.94 120.06 12.19 119.32 12.19C118.08 12.19 117.34 11.33 117.24 10.15L122.41 10.15ZM119.16 7.50C120.20 7.50 120.87 8.12 121.01 9.17L117.29 9.17C117.50 8.17 118.18 7.50 119.16 7.50ZM123.17 12.22C123.65 12.88 124.66 13.34 125.90 13.34C127.53 13.34 128.54 12.54 128.54 11.35C128.54 9.00 125.04 9.79 125.04 8.36C125.04 7.86 125.42 7.53 126.19 7.51C126.67 7.50 127.22 7.73 127.62 8.11L128.39 7.22C127.95 6.75 127.11 6.36 126.13 6.36C124.56 6.36 123.59 7.19 123.59 8.41C123.59 10.82 127.04 10.09 127.04 11.38C127.04 11.87 126.63 12.21 125.81 12.21C125.15 12.21 124.56 11.97 124.08 11.35ZM129.24 12.22C129.72 12.88 130.72 13.34 131.96 13.34C133.60 13.34 134.60 12.54 134.60 11.35C134.60 9.00 131.10 9.79 131.10 8.36C131.10 7.86 131.48 7.53 132.26 7.51C132.74 7.50 133.29 7.73 133.69 8.11L134.46 7.22C134.02 6.75 133.17 6.36 132.20 6.36C130.62 6.36 129.66 7.19 129.66 8.41C129.66 10.82 133.10 10.09 133.10 11.38C133.10 11.87 132.69 12.21 131.88 12.21C131.22 12.21 130.62 11.97 130.14 11.35ZM142.25 9.70C142.25 7.73 140.92 6.36 138.99 6.36C137.01 6.36 135.58 7.89 135.58 9.84C135.58 11.80 137.00 13.31 139.17 13.31C140.31 13.31 141.27 12.92 141.87 12.25L140.89 11.46C140.47 11.94 139.90 12.19 139.15 12.19C137.91 12.19 137.17 11.33 137.07 10.15L142.25 10.15ZM138.99 7.50C140.03 7.50 140.70 8.12 140.85 9.17L137.13 9.17C137.33 8.17 138.02 7.50 138.99 7.50ZM146.74 6.36C145.95 6.36 145.42 6.74 145.05 7.41L144.87 6.53L143.65 6.53L143.65 13.15L145.06 13.15L145.06 9.70C145.06 8.62 145.63 7.66 146.66 7.66C146.90 7.66 147.12 7.70 147.31 7.79L147.73 6.58C147.55 6.47 147.17 6.36 146.74 6.36Z"></path></g><defs data-v-fde0c5aa=""><!----></defs><g data-v-fde0c5aa="" id="9e84a6cc-4df2-4cb8-b08c-399dc179ef14" stroke="none" fill="#ffffff" transform="matrix(0.6521954015822518,0,0,0.6521954015822518,117.39022836593242,99.43125836096826)"><path d="M40.71 58.787a3.094 3.094 0 0 0-2.774 1.678 10.176 10.176 0 0 1-1.375-.214c-2.56-.539-4.215-1.293-5.548-2.347-.065-.064-.129-.107-.194-.172-1.226-1.01-2.194-2.277-3.396-3.828 0 0 0-.021-.022-.021-.129-.473-.409-1.826.129-2.814.042-.065.086-.129.15-.194a3.015 3.015 0 0 0 1.635.474 3.128 3.128 0 0 0 3.139-3.14 3.125 3.125 0 0 0-3.139-3.118 3.107 3.107 0 0 0-3.075 2.667c-.773.58-1.269 1.227-1.547 1.785a5.53 5.53 0 0 0-.603 1.826 6.83 6.83 0 0 0-2.666-.323 3.035 3.035 0 0 0-2.301-1.051 3.142 3.142 0 0 0-3.139 3.139 3.13 3.13 0 0 0 6.065 1.098c.88.041 1.848.363 2.623 1.377l.193.257c.495.626.947 1.226 1.42 1.805-1.72.435-3.033 1.269-3.979 2.194h-.066a3.123 3.123 0 0 0-3.118 3.139c0 1.721 1.397 3.141 3.118 3.141 1.742 0 3.14-1.42 3.14-3.141 0-.472-.107-.924-.302-1.332.839-.624 2.173-1.162 4.172-1.076 1.592 1.227 3.633 2.194 6.645 2.817.752.149 1.505.26 2.28.323a3.074 3.074 0 0 0 2.536 1.332c1.721 0 3.14-1.42 3.14-3.14a3.144 3.144 0 0 0-3.141-3.141zM29.314 46.702h.129c.021 0 .064 0 .086.021.751.088 1.312.71 1.312 1.484 0 .646-.387 1.203-.968 1.396-.021.023-.042.045-.064.045-.065.02-.129.043-.172.064-.107.021-.216.021-.323.021-.839 0-1.505-.689-1.505-1.527s.667-1.504 1.505-1.504zm-10.192 7.956a1.52 1.52 0 0 1-1.527-1.526c0-.839.667-1.526 1.527-1.526.839 0 1.506.688 1.506 1.526a1.516 1.516 0 0 1-1.506 1.526zm4.623 8.578c0 .022 0 .022-.021.044 0 .045 0 .064-.022.086a.165.165 0 0 1-.042.086c0 .022-.022.044-.043.065 0 .041 0 .086-.043.106 0 .021-.022.044-.022.063 0 .021-.021.021-.043.043-.021.086-.043.15-.129.193 0 .044-.043.087-.086.109a.277.277 0 0 1-.171.171c-.022.021-.022.043-.043.043 0 .021-.022.021-.022.021a1.352 1.352 0 0 1-.817.258c-.042 0-.085 0-.107-.021-.085 0-.171 0-.258-.022a1.543 1.543 0 0 1-1.161-1.483 1.53 1.53 0 0 1 1.526-1.524c.839 0 1.527.687 1.527 1.524-.001.089-.001.175-.023.238zm16.965.216a1.532 1.532 0 0 1-1.527-1.526c0-.601.345-1.117.839-1.354h.021c.215-.106.43-.174.667-.174.603 0 1.141.367 1.333.884.043.044.064.106.086.147.021.024.021.065.021.09.022.041.022.063.043.104.022.089.022.195.022.303a1.512 1.512 0 0 1-1.505 1.526z"></path><path d="M61.719 23.524c-8.814-2.411-9.396.815-11.719.815-2.322 0-3.225-3.461-11.762-.815C20.025 28.662 6.629 45.455 6.629 65.281v8.02a4.176 4.176 0 0 0 4.171 4.172h78.399a4.176 4.176 0 0 0 4.172-4.172v-8.02c0-19.869-13.418-36.642-31.652-41.757zm25.179 41.757a2.679 2.679 0 0 1-2.668 2.664H54.795a2.664 2.664 0 0 1-2.667-2.664l.022-8.001A2.156 2.156 0 0 0 50 55.131c-1.182 0-2.15.967-2.15 2.149v8.001a2.665 2.665 0 0 1-2.667 2.664H15.747a2.664 2.664 0 0 1-2.667-2.664c0-9.354 3.506-17.912 9.269-24.428a37.546 37.546 0 0 1 3.742-3.677c.688.967 1.504 2.817 1.978 4.666a1.58 1.58 0 0 0 1.096 1.138c.151.044.301.088.474.088.387 0 .752-.15 1.053-.409.732-.645 1.742-1.12 2.882-1.44-.258 1.182-.301 2.731.193 4.665.773 3.009 3.397 4.689 5.461 5.569v.023a3.14 3.14 0 0 0 3.075 2.471 3.129 3.129 0 0 0 3.14-3.141 3.143 3.143 0 0 0-3.14-3.139c-.752 0-1.462.279-2 .754-1.44-.668-3.01-1.742-3.418-3.334-.71-2.751.15-4.15.343-4.453 2.344-.149 4.602 0 5.785.173a1.6 1.6 0 0 0 1.655-.838 1.56 1.56 0 0 0-.236-1.828 5.673 5.673 0 0 1-1.269-2.234 3.066 3.066 0 0 0 1.483-2.646 3.128 3.128 0 0 0-3.139-3.139 3.143 3.143 0 0 0-3.14 3.139c0 1.117.602 2.108 1.505 2.646.086.45.194.944.387 1.44-2.774-.085-6.709.108-9.719 1.592-.429-1.206-1.053-2.604-1.914-3.721a36.453 36.453 0 0 1 16.558-6.537s.236-.044.345-.044a2.31 2.31 0 0 1 2.322 2.301V49.69c0 1.182.967 2.15 2.15 2.15a2.156 2.156 0 0 0 2.149-2.15V38.509c.838.582 1.85 1.142 3.054 1.549.173.063.345.106.517.151-1.031 1.524-1.548 3.419-.754 5.376 1.076 2.599 3.334 2.966 4.989 3.225.729.107 1.44.216 1.979.494 1.762.925 2.041 2.688 1.978 4.021-.086 1.505-.71 3.054-1.548 4.147a3.408 3.408 0 0 0-1.141-.214 3.13 3.13 0 0 0-3.141 3.14 3.131 3.131 0 0 0 3.141 3.141 3.144 3.144 0 0 0 3.14-3.141c0-.086 0-.191-.021-.279v-.041c1.569-1.657 2.646-4.045 2.796-6.561.172-3.185-1.185-5.763-3.742-7.075-.989-.515-2.021-.687-2.945-.817-1.592-.258-2.131-.408-2.494-1.268-.494-1.226.432-2.602 1.377-3.44.473.021.9.043 1.311.043.518 0 .988-.022 1.397-.063a3.082 3.082 0 0 0 2.321 1.052c1.722 0 3.119-1.419 3.119-3.139a3.124 3.124 0 0 0-3.118-3.141 3.09 3.09 0 0 0-2.925 2.023h-.021c-1.29.083-3.118 0-5.184-.689-2.172-.752-3.439-2.087-4.084-3.053v-2.99a2.284 2.284 0 0 1 2.277-2.299h.344c7.141.924 13.525 3.913 18.795 8.323-1.44.15-2.926.621-4.192 1.696-1.204 1.012-1.957 2.388-2.235 4.108a3.107 3.107 0 0 0-1.785 2.817 3.122 3.122 0 0 0 3.117 3.139 3.128 3.128 0 0 0 3.139-3.139 3.03 3.03 0 0 0-1.225-2.453c.15-.859.516-1.524 1.075-2 1.59-1.375 4.644-1.074 5.677-.837h.043a36.879 36.879 0 0 1 4.752 6.451c-4.149-.238-7.031 2.343-8.084 3.957-.279.43-.347.947-.174 1.42.41 1.159.883 4.084-.3 6.858-.151.343-.365.71-.647 1.054a3.202 3.202 0 0 0-1.117-.193 3.142 3.142 0 0 0-3.139 3.139 3.158 3.158 0 0 0 3.139 3.141 3.146 3.146 0 0 0 3.142-3.141c0-.105 0-.191-.022-.301.711-.773 1.25-1.592 1.613-2.428 1.461-3.485 1.012-6.754.624-8.302.859-.927 2.923-2.645 6.127-1.807.193.064.409.064.603.043a36.727 36.727 0 0 1 3.227 15.073h-.023v.002zM43.699 50.207a.334.334 0 0 1 .064.195.599.599 0 0 1 .043.193c.022.063.022.148.022.214v.107c0 .021-.022.044-.022.044v.106c0 .043-.021.064-.021.084v.043c-.022 0-.022.021-.022.021a2.101 2.101 0 0 1-.214.496c-.043.02-.065.064-.086.085a1.067 1.067 0 0 1-.28.259c-.086.063-.193.107-.279.151l-.021.021c-.086.021-.172.064-.281.086-.085 0-.192.021-.3.021a1.532 1.532 0 0 1-1.526-1.527 1.53 1.53 0 0 1 1.526-1.524c.516 0 .99.279 1.269.666.043.063.064.129.086.191l.021.023v.021l.021.024zM39.98 33.263c0-.86.688-1.527 1.526-1.527a1.52 1.52 0 0 1 1.527 1.527c0 .109-.021.214-.021.324a1.544 1.544 0 0 1-1.505 1.182c-.84 0-1.527-.666-1.527-1.506zm22.771 27.135c0 .838-.688 1.526-1.526 1.526-.84 0-1.526-.688-1.526-1.526s.688-1.525 1.526-1.525 1.526.69 1.526 1.525zm1.612-20.061c-.84 0-1.527-.687-1.527-1.526 0-.668.432-1.227 1.014-1.442h.021a1.24 1.24 0 0 1 .493-.085c.84 0 1.507.686 1.507 1.527 0 .688-.452 1.288-1.097 1.461-.022.021-.065.021-.107.044-.088 0-.194.021-.304.021zm5.635 5.268c0 .428-.173.818-.452 1.076-.065.062-.13.129-.192.171a1.59 1.59 0 0 1-.883.28c-.839 0-1.506-.666-1.506-1.527 0-.129.021-.237.043-.344v-.021a1.501 1.501 0 0 1 1.463-1.141c.84.002 1.527.667 1.527 1.506zM73.137 63a1.51 1.51 0 0 1-1.033 1.441 1.25 1.25 0 0 1-.494.086A1.53 1.53 0 0 1 70.086 63a1.538 1.538 0 0 1 1.524-1.525c.837 0 1.527.686 1.527 1.525z"></path></g><!----></svg>