<svg data-v-fde0c5aa="" xmlns="http://www.w3.org/2000/svg" viewBox="0 0 300 300" class="font"><!----><defs data-v-fde0c5aa=""><!----></defs><rect data-v-fde0c5aa="" fill="#4D65F1" x="0" y="0" width="300px" height="300px" class="logo-background-square"></rect><defs data-v-fde0c5aa=""><!----></defs><g data-v-fde0c5aa="" id="4f0f9e25-9246-45a2-b2b3-4731cb1cd828" fill="#ffffff" transform="matrix(1.5010917280620546,0,0,1.5010917280620546,38.24372256364319,137.55594927373951)"><path d="M9.36 3.82L5.92 8.65L2.49 3.82L1.17 3.82L1.17 13.15L2.64 13.15L2.64 6.31L5.94 10.76L9.22 6.31L9.22 13.15L10.69 13.15L10.69 3.82ZM17.95 6.53L17.76 7.45C17.25 6.78 16.48 6.36 15.46 6.36C13.74 6.36 12.37 7.69 12.37 9.84C12.37 12.00 13.74 13.31 15.46 13.31C16.46 13.31 17.24 12.89 17.75 12.22L17.95 13.15L19.12 13.15L19.12 6.53ZM15.79 12.12C14.60 12.12 13.81 11.14 13.81 9.84C13.81 8.55 14.60 7.55 15.79 7.55C17.03 7.55 17.84 8.55 17.84 9.84C17.84 11.14 17.03 12.12 15.79 12.12ZM23.99 13.34C24.91 13.34 25.65 13.07 26.26 12.60L25.45 11.58C25.08 11.93 24.57 12.13 24.02 12.13C22.72 12.13 21.95 11.14 21.95 9.84C21.95 8.55 22.72 7.57 24.02 7.57C24.57 7.57 25.08 7.77 25.45 8.12L26.26 7.10C25.65 6.64 24.91 6.36 23.99 6.36C21.93 6.36 20.50 7.89 20.50 9.84C20.50 11.81 21.93 13.34 23.99 13.34ZM30.84 6.36C29.91 6.36 29.20 6.75 28.79 7.35L28.79 3.24L27.37 3.24L27.37 13.15L28.79 13.15L28.79 9.42C28.79 8.02 29.65 7.57 30.45 7.57C31.47 7.57 31.91 8.30 31.91 9.38L31.91 13.15L33.32 13.15L33.32 9.06C33.32 7 32.00 6.36 30.84 6.36ZM35.85 5.26C36.36 5.26 36.76 4.86 36.76 4.36C36.76 3.86 36.36 3.46 35.85 3.46C35.35 3.46 34.94 3.86 34.94 4.36C34.94 4.86 35.35 5.26 35.85 5.26ZM35.17 13.15L36.56 13.15L36.56 6.53L35.17 6.53ZM41.94 6.36C41.01 6.36 40.31 6.75 39.90 7.32L39.73 6.53L38.49 6.53L38.49 13.15L39.90 13.15L39.90 9.11C40.02 7.95 40.80 7.57 41.55 7.57C42.57 7.57 43.01 8.30 43.01 9.38L43.01 13.15L44.42 13.15L44.42 9.06C44.42 7 43.09 6.36 41.94 6.36ZM52.40 9.70C52.40 7.73 51.07 6.36 49.15 6.36C47.16 6.36 45.73 7.89 45.73 9.84C45.73 11.80 47.15 13.31 49.32 13.31C50.46 13.31 51.42 12.92 52.02 12.25L51.04 11.46C50.62 11.94 50.05 12.19 49.31 12.19C48.07 12.19 47.32 11.33 47.22 10.15L52.40 10.15ZM49.15 7.50C50.18 7.50 50.85 8.12 51.00 9.17L47.28 9.17C47.48 8.17 48.17 7.50 49.15 7.50ZM61.77 7.99C62.82 7.71 63.38 7.04 63.38 6.05C63.38 4.67 62.26 3.82 60.40 3.82L57.79 3.82L57.79 13.15L60.83 13.15C62.91 13.15 64.21 12.12 64.21 10.47C64.21 9.11 63.34 8.21 61.77 7.99ZM61.92 6.17C61.92 7 61.32 7.51 60.32 7.51L59.28 7.51L59.28 4.93L60.36 4.93C61.37 4.93 61.92 5.37 61.92 6.17ZM60.64 12.05L59.28 12.05L59.28 8.72L60.59 8.72C61.86 8.72 62.66 9.32 62.66 10.37C62.66 11.40 61.91 12.05 60.64 12.05ZM68.67 6.36C67.89 6.36 67.36 6.74 66.98 7.41L66.81 6.53L65.58 6.53L65.58 13.15L67.00 13.15L67.00 9.70C67.00 8.62 67.56 7.66 68.60 7.66C68.83 7.66 69.05 7.70 69.24 7.79L69.66 6.58C69.49 6.47 69.11 6.36 68.67 6.36ZM75.77 6.53L75.59 7.45C75.07 6.78 74.30 6.36 73.28 6.36C71.56 6.36 70.19 7.69 70.19 9.84C70.19 12.00 71.56 13.31 73.28 13.31C74.29 13.31 75.06 12.89 75.57 12.22L75.77 13.15L76.94 13.15L76.94 6.53ZM73.62 12.12C72.42 12.12 71.63 11.14 71.63 9.84C71.63 8.55 72.42 7.55 73.62 7.55C74.86 7.55 75.66 8.55 75.66 9.84C75.66 11.14 74.86 12.12 73.62 12.12ZM82.15 6.36C81.21 6.36 80.51 6.75 80.11 7.32L79.93 6.53L78.69 6.53L78.69 13.15L80.11 13.15L80.11 9.11C80.22 7.95 81.01 7.57 81.75 7.57C82.77 7.57 83.21 8.30 83.21 9.38L83.21 13.15L84.63 13.15L84.63 9.06C84.63 7 83.30 6.36 82.15 6.36ZM91.23 3.24L91.23 7.32C90.72 6.72 89.99 6.36 89.05 6.36C87.32 6.36 85.95 7.69 85.95 9.84C85.95 12.00 87.32 13.31 89.05 13.31C90.04 13.31 90.81 12.91 91.32 12.25L91.50 13.15L92.65 13.15L92.65 3.24ZM89.38 12.12C88.19 12.12 87.40 11.14 87.40 9.84C87.40 8.55 88.19 7.55 89.38 7.55C90.62 7.55 91.42 8.55 91.42 9.84C91.42 11.14 90.62 12.12 89.38 12.12ZM103.13 8.06L103.13 9.23L105.67 9.23C105.61 10.97 104.37 12.02 102.71 12.02C100.65 12.02 99.39 10.37 99.39 8.44C99.39 6.50 100.67 4.93 102.78 4.91C103.88 4.91 104.61 5.34 104.93 5.60L105.73 4.46C105.31 4.11 104.23 3.59 102.80 3.59C99.78 3.59 97.84 5.75 97.84 8.44C97.84 11.17 99.76 13.34 102.74 13.34C105.64 13.34 107.19 11.21 107.19 8.90L107.19 8.06ZM111.47 13.33C112.92 13.33 114.44 12.67 114.44 10.31L114.44 6.53L113.02 6.53L113.02 10.32C113.02 11.43 112.48 12.12 111.47 12.12C110.47 12.12 109.93 11.43 109.93 10.32L109.93 6.53L108.51 6.53L108.51 10.31C108.51 12.67 110.03 13.33 111.47 13.33ZM122.41 9.70C122.41 7.73 121.09 6.36 119.16 6.36C117.18 6.36 115.75 7.89 115.75 9.84C115.75 11.80 117.16 13.31 119.34 13.31C120.47 13.31 121.44 12.92 122.03 12.25L121.06 11.46C120.63 11.94 120.06 12.19 119.32 12.19C118.08 12.19 117.34 11.33 117.24 10.15L122.41 10.15ZM119.16 7.50C120.20 7.50 120.87 8.12 121.01 9.17L117.29 9.17C117.50 8.17 118.18 7.50 119.16 7.50ZM123.17 12.22C123.65 12.88 124.66 13.34 125.90 13.34C127.53 13.34 128.54 12.54 128.54 11.35C128.54 9.00 125.04 9.79 125.04 8.36C125.04 7.86 125.42 7.53 126.19 7.51C126.67 7.50 127.22 7.73 127.62 8.11L128.39 7.22C127.95 6.75 127.11 6.36 126.13 6.36C124.56 6.36 123.59 7.19 123.59 8.41C123.59 10.82 127.04 10.09 127.04 11.38C127.04 11.87 126.63 12.21 125.81 12.21C125.15 12.21 124.56 11.97 124.08 11.35ZM129.24 12.22C129.72 12.88 130.72 13.34 131.96 13.34C133.60 13.34 134.60 12.54 134.60 11.35C134.60 9.00 131.10 9.79 131.10 8.36C131.10 7.86 131.48 7.53 132.26 7.51C132.74 7.50 133.29 7.73 133.69 8.11L134.46 7.22C134.02 6.75 133.17 6.36 132.20 6.36C130.62 6.36 129.66 7.19 129.66 8.41C129.66 10.82 133.10 10.09 133.10 11.38C133.10 11.87 132.69 12.21 131.88 12.21C131.22 12.21 130.62 11.97 130.14 11.35ZM142.25 9.70C142.25 7.73 140.92 6.36 138.99 6.36C137.01 6.36 135.58 7.89 135.58 9.84C135.58 11.80 137.00 13.31 139.17 13.31C140.31 13.31 141.27 12.92 141.87 12.25L140.89 11.46C140.47 11.94 139.90 12.19 139.15 12.19C137.91 12.19 137.17 11.33 137.07 10.15L142.25 10.15ZM138.99 7.50C140.03 7.50 140.70 8.12 140.85 9.17L137.13 9.17C137.33 8.17 138.02 7.50 138.99 7.50ZM146.74 6.36C145.95 6.36 145.42 6.74 145.05 7.41L144.87 6.53L143.65 6.53L143.65 13.15L145.06 13.15L145.06 9.70C145.06 8.62 145.63 7.66 146.66 7.66C146.90 7.66 147.12 7.70 147.31 7.79L147.73 6.58C147.55 6.47 147.17 6.36 146.74 6.36Z"></path></g><!----><!----></svg>